<svg width="24" height="38" viewBox="0 0 24 38" fill="none" xmlns="http://www.w3.org/2000/svg">
<path fill-rule="evenodd" clip-rule="evenodd" d="M19.8877 30.4132C19.6115 30.6296 19.4818 30.9431 19.4263 31.2955C19.3957 31.49 19.2182 31.5165 19.0847 31.5507C18.9691 31.5804 18.8625 31.5843 18.769 31.6796C18.7304 31.7191 18.6098 31.7277 18.5592 31.6968C18.3971 31.5981 18.2237 31.5259 18.0741 31.3942C17.5474 30.9308 17.1614 30.3576 16.8001 29.7729C16.4314 29.1763 16.0456 28.586 15.7632 27.9389C15.6754 27.7375 15.6719 27.7391 15.8929 27.5827C16.0726 27.9245 16.2401 28.2714 16.4341 28.603C16.588 28.866 16.7741 29.1099 16.9615 29.3851C17.0056 29.2743 17.0046 29.2033 16.9361 29.1045C16.5633 28.566 16.2094 28.0152 15.9287 27.3846C15.9735 27.3554 16.0277 27.3199 16.0817 27.2848C16.0941 27.2955 16.1219 27.3196 16.1694 27.3607V27.1361C16.3027 27.1095 16.4234 27.0856 16.5806 27.0544C16.7031 27.1116 16.7613 27.3285 16.963 27.3554C16.9565 27.5747 17.1482 27.684 17.2446 27.8443C17.3642 28.043 17.5262 28.216 17.6409 28.3629C17.7704 28.3457 17.8672 28.3276 17.9649 28.3208C18.308 28.2967 18.2997 28.3075 18.5134 28.496C18.7509 28.7054 18.9134 28.9985 19.2197 29.1315C19.2394 29.14 19.2614 29.17 19.2624 29.191C19.2719 29.4114 19.3954 29.4914 19.6023 29.5449C19.7759 29.5899 19.8252 29.7729 19.8334 29.9529C19.8396 30.0909 19.865 30.2279 19.8877 30.4132Z" fill="#F06156"/>
<path fill-rule="evenodd" clip-rule="evenodd" d="M15.5126 20.1533C15.312 19.9528 15.1438 19.7564 14.9476 19.5937C14.3848 19.1267 14.1176 18.4661 13.7811 17.8512C13.6299 17.5751 13.6731 17.265 13.6796 16.9663C13.6808 16.9144 13.7524 16.8641 13.7943 16.8097C13.8515 16.9229 13.9051 17.029 13.9834 17.1837V16.6308C14.1011 16.5724 14.2174 16.5406 14.2967 16.4684C14.3952 16.3789 14.5065 16.3965 14.5968 16.4193C14.7019 16.4457 14.7916 16.5335 14.8974 16.6006C14.8354 16.8908 14.9496 17.1338 15.0912 17.3871C15.2179 17.3527 15.3674 17.4427 15.4943 17.3126C15.5212 17.285 15.6094 17.2828 15.6474 17.3057C15.9581 17.4927 16.3394 17.5919 16.4965 17.9757C16.5247 18.0449 16.5561 18.1343 16.6128 18.165C16.6984 18.2114 16.6216 18.356 16.7685 18.3617C16.8894 18.3663 16.8121 18.4895 16.8338 18.5567C16.8607 18.6398 16.8974 18.7212 16.9119 18.8065C16.9253 18.8846 16.9148 18.9669 16.9148 19.048C16.6038 19.3147 16.4038 19.6546 16.2506 20.0331C16.0018 20.0735 15.7493 20.1147 15.5126 20.1533Z" fill="#F06156"/>
<path fill-rule="evenodd" clip-rule="evenodd" d="M5.40007 4.47498C5.22734 4.59231 5.06099 4.70994 4.88766 4.81584C4.87088 4.82609 4.81058 4.76505 4.74553 4.7196C4.70572 4.79104 4.67869 4.85654 4.63651 4.91C4.5869 4.97313 4.52319 5.02511 4.46689 5.08318C4.35283 5.20067 4.24292 5.33151 4.07435 5.15299C4.06143 5.13947 4.02222 5.15284 3.99563 5.15002C3.80626 5.12952 3.62581 5.17675 3.43525 5.02437C3.28183 4.90169 3.08652 4.81688 2.9423 4.66628C2.80714 4.52488 2.66723 4.3921 2.57292 4.21269C2.42826 3.93718 2.28538 3.66478 2.33692 3.34145C2.34984 3.26035 2.40554 3.18594 2.45589 3.07737C2.55777 3.16084 2.62669 3.21728 2.70719 3.28337C2.77313 3.0646 2.75962 2.81033 2.96235 2.61754C3.04181 2.67695 3.1186 2.73428 3.2144 2.80587V2.51046C3.48055 2.46501 3.72235 2.37352 3.98909 2.38956C4.14207 2.39877 4.27426 2.44719 4.3711 2.54001C4.49556 2.65913 4.64794 2.74438 4.74954 2.89706C4.84132 3.03519 4.96683 3.15074 5.06322 3.29303C5.22139 3.52695 5.27486 3.80038 5.39056 4.04931C5.44581 4.16798 5.40007 4.33373 5.40007 4.47498Z" fill="#F06156"/>
<path fill-rule="evenodd" clip-rule="evenodd" d="M21.6795 12.3505C21.6902 12.2758 21.7009 12.201 21.7127 12.1187C21.7421 12.1401 21.7683 12.1485 21.7751 12.165C21.8789 12.419 22.0083 12.6624 22.0693 12.9341C22.1077 13.1049 22.1565 13.2684 21.9912 13.4015C21.8786 13.4921 21.9929 13.7523 21.7396 13.7377C21.6202 13.9295 21.4289 13.9103 21.2459 13.8973C21.2046 14.0256 21.1789 14.1506 21.125 14.2622C21.0643 14.3878 20.8702 14.4233 20.6621 14.3639C20.6146 14.3504 20.5687 14.3042 20.5251 14.3081C20.188 14.3375 20.1886 14.34 20.0467 14.0741C19.9759 13.9415 19.8904 13.8148 19.8354 13.676C19.7686 13.5066 19.6646 13.4009 19.4936 13.3278C19.2398 13.2192 19.075 12.9991 19.0311 12.7373C18.9915 12.5002 19.1024 12.2828 19.3141 12.112C19.4189 12.2489 19.5235 12.3854 19.6701 12.5767C19.6701 12.381 19.668 12.2492 19.6707 12.1176C19.6734 11.9868 19.6876 12.0135 19.8947 11.9203C20.0426 11.8536 20.2569 11.9344 20.342 11.7291C20.4882 11.7235 20.6342 11.7181 20.7803 11.7125C21.0502 11.7018 21.2896 11.7312 21.4154 12.0312C21.4653 12.15 21.5849 12.2397 21.6795 12.3505Z" fill="#F06156"/>
<path fill-rule="evenodd" clip-rule="evenodd" d="M11.5626 32.9455C11.353 32.9396 11.1547 32.883 11.0534 33.1153C10.8824 32.8898 10.8622 32.7299 11.0364 32.5507C11.1567 32.4272 11.236 32.2728 11.3893 32.1661C11.5234 32.0725 11.5727 31.8656 11.6882 31.7339C11.7771 31.6326 11.9104 31.5702 12.0241 31.4907C12.0595 31.5253 12.0979 31.5631 12.1583 31.6223C12.0942 31.6679 12.0312 31.7128 11.9681 31.7575C11.975 31.7737 11.9822 31.7898 11.9891 31.806C12.0815 31.7915 12.1738 31.7769 12.2776 31.7606C12.3052 31.802 12.3373 31.9084 12.4061 31.9442C12.8191 32.1592 13.0827 32.5182 13.3337 32.8867C13.4162 33.0076 13.4445 33.164 13.5108 33.2978C13.6743 33.6286 13.7165 33.6896 13.6667 33.9902C13.6308 34.2075 13.5911 34.4392 13.4205 34.6163C13.353 34.6861 13.2812 34.7869 13.2776 34.8763C13.2687 35.1021 13.1447 35.1382 12.9623 35.1266C12.9113 35.1233 12.8574 35.1298 12.8078 35.1432C12.4897 35.2288 12.4568 35.2199 12.2982 34.976C12.0633 34.6149 11.951 34.202 11.8143 33.8007C11.7178 33.5172 11.6441 33.2256 11.5626 32.9455Z" fill="#F06156"/>
<path fill-rule="evenodd" clip-rule="evenodd" d="M6.41186 28.5016C6.18685 28.3739 5.95902 28.2621 5.77559 28.0771C5.43384 27.732 5.06698 27.4086 4.75167 27.0409C4.42016 26.6543 4.0692 26.2732 3.86914 25.8199C3.89023 25.6409 4.12341 25.831 4.12787 25.6198C4.12921 25.5595 4.27699 25.5013 4.35897 25.4441C4.56245 25.3021 4.67607 25.2784 4.8243 25.4361C4.97059 25.5919 5.13976 25.6477 5.33121 25.6883C5.62692 25.751 5.83099 25.9781 6.08407 26.1178C6.35483 26.2672 6.54776 26.5078 6.76773 26.7168C6.88164 26.8249 7.02319 26.908 7.12106 27.0277C7.21954 27.1481 7.30999 27.2929 7.34489 27.441C7.36598 27.5312 7.29825 27.6672 7.22934 27.7476C7.14423 27.8466 7.10398 27.9897 6.95501 28.0376C6.86887 28.0653 6.88105 28.1615 6.86427 28.2408C6.84496 28.3319 6.81956 28.4427 6.66153 28.3283C6.55103 28.2485 6.45806 28.3617 6.41186 28.5016Z" fill="#F06156"/>
<path fill-rule="evenodd" clip-rule="evenodd" d="M22.7192 26.1589C22.2576 25.9688 22.0591 25.6153 21.8619 25.2717C21.6886 24.9698 21.5305 24.6554 21.4016 24.332C21.2731 24.0091 21.049 23.7032 21.149 23.2968C21.441 23.5003 21.4168 23.8893 21.6972 24.1494C21.6458 23.7379 21.4324 23.4201 21.3259 22.9867C21.4732 23.0675 21.5267 23.0968 21.592 23.1326C21.6046 23.062 21.6179 22.988 21.6309 22.9144C21.753 22.8912 21.8735 22.8683 22.0158 22.8413C22.0535 22.9016 22.1029 22.9907 22.1618 23.0733C22.3911 23.3946 22.3924 23.3931 22.8089 23.5412C22.8554 23.5578 22.8989 23.5848 22.9411 23.6116C23.2637 23.8153 23.5573 24.0449 23.7348 24.3992C23.8004 24.5302 23.8898 24.7708 23.8858 24.9102C23.8849 24.9429 23.9123 24.9812 23.936 25.0089C23.9966 25.0791 23.9693 25.139 23.9066 25.1745C23.7247 25.2771 23.6458 25.4791 23.4842 25.6C23.4153 25.6515 23.403 25.7201 23.3905 25.8052C23.3733 25.9211 23.146 26.0713 23.0403 26.0469C22.9748 26.0317 22.9324 25.9114 22.8432 26.0001C22.7964 26.0467 22.7608 26.1047 22.7192 26.1589Z" fill="#F06156"/>
<path fill-rule="evenodd" clip-rule="evenodd" d="M9.60164 16.7193C9.53094 16.731 9.45683 16.7432 9.3545 16.7601C9.39489 16.8359 9.42371 16.8896 9.45386 16.9461C9.26152 17.1384 9.06131 17.3386 8.85486 17.5452C8.82159 17.5452 8.7809 17.5391 8.74258 17.5461C8.28825 17.6302 7.9857 17.3723 7.73336 17.0615C7.53627 16.8187 7.3668 16.5512 7.23492 16.2593C7.15263 16.0771 7.07911 15.9092 7.13793 15.6617C7.27576 15.9646 7.39859 16.2344 7.52142 16.5042C7.54325 16.4971 7.56508 16.4901 7.58707 16.483C7.57711 16.4316 7.57563 16.3765 7.55573 16.3293C7.47359 16.1341 7.38017 15.9434 7.30279 15.7466C7.26848 15.6594 7.19496 15.5509 7.38225 15.5103C7.44003 15.4978 7.47389 15.3732 7.518 15.2994C7.55662 15.2346 7.59405 15.1692 7.62464 15.1169C7.81401 15.0995 7.81579 15.2651 7.93387 15.3334C7.90639 15.2292 7.87891 15.1249 7.84267 14.9877C7.90327 14.9397 7.98422 14.8755 8.06516 14.8112C8.11625 14.862 8.18398 14.9429 8.24681 14.7937C8.31498 14.6324 8.41568 14.5696 8.57891 14.6755C8.59376 14.6851 8.6245 14.6925 8.63431 14.6845C8.82338 14.5287 8.93477 14.6839 9.02225 14.803C9.23107 15.0878 9.3294 15.4297 9.45445 15.7549C9.48386 15.8313 9.54787 16.0105 9.33251 16.0192C9.32034 16.0196 9.31098 16.0866 9.30043 16.1225C9.34529 16.1334 9.4142 16.1681 9.43128 16.1509C9.55203 16.0298 9.61709 16.1879 9.6052 16.2156C9.53258 16.3863 9.70085 16.5512 9.60164 16.7193Z" fill="#F06156"/>
<path fill-rule="evenodd" clip-rule="evenodd" d="M8.13446 8.07596C8.18199 8.12349 8.22966 8.17117 8.30199 8.24335C8.31521 8.12884 8.3262 8.03438 8.33823 7.9313C8.50488 7.8964 8.67672 7.85243 8.85123 7.82659C8.95669 7.811 9.06808 7.81144 9.17323 7.82763C9.25344 7.84011 9.19046 7.98952 9.34003 8.00259C9.43671 8.01106 9.51098 8.17532 9.57974 8.28969C9.63559 8.38252 9.55197 8.58347 9.76406 8.57144C9.77134 8.70288 9.77862 8.83447 9.78619 8.96592C9.78678 8.97869 9.78976 8.99131 9.79169 9.00409L10.3935 9.6059C10.458 9.6059 10.5263 9.59759 10.5915 9.60783C10.692 9.62402 10.8003 9.72368 10.7488 9.78547C10.6341 9.92285 10.8397 10.0178 10.7581 10.1299C10.4449 10.2238 10.3461 10.2342 10.0913 10.1896C10.1551 10.3276 10.2107 10.4479 10.2805 10.5991C10.2398 10.6381 10.1862 10.7333 10.1333 10.733C9.79956 10.7305 9.4483 10.8152 9.15081 10.5783C9.07016 10.514 8.97273 10.4636 8.91005 10.3851C8.76702 10.2059 8.63899 10.0148 8.50844 9.82587C8.44413 9.73274 8.38918 9.63293 8.32739 9.53788C8.23174 9.39069 8.26011 9.1786 8.0847 9.0733C8.11129 8.89477 8.01059 8.75976 7.94628 8.60575C7.8588 8.39648 7.91301 8.19627 8.13446 8.07596Z" fill="#F06156"/>
<path fill-rule="evenodd" clip-rule="evenodd" d="M2.57531 17.0095C2.57531 16.9692 2.56565 16.9132 2.57873 16.8629C2.5875 16.8293 2.64504 16.8065 2.65009 16.7742C2.65559 16.739 2.61426 16.6985 2.61382 16.6602C2.61352 16.6261 2.66139 16.5843 2.65202 16.5592C2.63493 16.513 2.59657 16.4702 2.55717 16.4381C2.53101 16.4166 2.48745 16.4163 2.43363 16.4018C2.4589 16.4896 2.47927 16.5604 2.49979 16.6313C2.35662 16.5441 2.19755 16.4745 2.26757 16.2641C2.32674 16.2894 2.38487 16.3145 2.45697 16.3454C2.48016 16.0923 2.24542 16.224 2.15503 16.1041C2.28734 16.1198 2.3755 16.0286 2.50856 16.0463C2.57026 16.0545 2.65054 15.9234 2.74509 15.8339C2.87636 15.9411 3.02354 16.061 3.1957 16.2015C3.2125 16.0988 3.22454 16.0257 3.23911 15.9366C3.43371 15.899 3.63322 15.8605 3.83497 15.8215C3.93859 15.9538 4.01961 16.0746 4.11832 16.1785C4.20396 16.2683 4.3217 16.3282 4.40421 16.4202C4.63702 16.6801 4.74258 17.0082 4.83832 17.3327C4.87266 17.4488 4.91042 17.6326 4.68846 17.6637C4.6895 17.8769 4.46472 17.9087 4.36333 18.0438C4.23622 18.213 4.01143 18.2421 3.76881 18.1442C3.40547 17.9974 3.16671 17.7138 2.93464 17.4375C2.81853 17.2991 2.68815 17.1686 2.57531 17.0095Z" fill="#F06156"/>
<path fill-rule="evenodd" clip-rule="evenodd" d="M9.25045 22.2611C9.3158 22.2833 9.37893 22.3047 9.45126 22.3294C9.46596 21.9887 9.11381 21.8932 9.0648 21.5795C9.13609 21.611 9.19416 21.6243 9.23619 21.6578C9.30362 21.7115 9.36036 21.7784 9.44442 21.8624C9.41576 21.6916 9.39675 21.6524 9.29932 21.5355C9.5123 21.278 9.5123 21.278 9.76375 21.2771C9.90203 21.4329 10.0201 21.6382 10.1973 21.7463C10.3929 21.8658 10.4505 22.0699 10.5947 22.2162C10.7326 22.3563 10.8241 22.547 10.9154 22.7259C10.9656 22.824 11.0082 22.9492 10.9919 23.0523C10.9711 23.1825 10.9156 23.374 10.8235 23.4109C10.672 23.472 10.7058 23.5791 10.6582 23.6712C10.5928 23.797 10.5034 23.9193 10.3394 23.9464C10.2436 23.9621 10.1296 24.0352 10.0593 24.0035C9.88836 23.9265 9.71177 23.8283 9.58537 23.6936C9.34684 23.4393 9.13356 23.1596 8.92949 22.8763C8.87825 22.8053 8.90187 22.6805 8.88672 22.5401C8.95474 22.5951 8.98177 22.6168 9.0391 22.663C9.0094 22.4564 9.19 22.3855 9.25045 22.2611Z" fill="#F06156"/>
<path fill-rule="evenodd" clip-rule="evenodd" d="M7.12148 37.1168C7.01083 37.0561 6.95751 37.0268 6.90582 36.9983C6.81478 37.3273 6.7922 37.3443 6.52323 37.2258C6.59422 37.3911 6.6511 37.5233 6.71304 37.6671C6.64279 37.7078 6.5709 37.7497 6.49827 37.7918C6.36698 37.6607 6.23375 37.5275 6.0882 37.3818C6.00057 37.5792 6.24177 37.6703 6.21801 37.8609C6.00161 37.8911 5.87611 37.7439 5.7515 37.6084C5.68347 37.5344 5.64664 37.4312 5.57654 37.3599C5.26404 37.0427 4.98333 36.6997 4.72163 36.3403C4.69817 36.3081 4.66564 36.2822 4.63653 36.2543C4.4788 36.1039 4.31349 35.9585 4.30176 35.7133C4.45919 35.6169 4.54281 35.7654 4.6499 35.8573C4.75876 35.6772 4.50687 35.6531 4.51816 35.5203C4.52781 35.3602 4.83243 35.5644 4.75505 35.3027H5.19364C5.31914 35.3911 5.44643 35.4786 5.57119 35.5693C5.69639 35.6604 5.77912 35.7912 5.9324 35.8653C6.08122 35.9375 6.17984 36.1077 6.31084 36.2231C6.39624 36.2984 6.45045 36.402 6.58694 36.4358C6.68571 36.4602 6.73844 36.61 6.88844 36.5907C6.93018 36.5852 7.00548 36.6607 7.02672 36.7143C7.06727 36.8165 7.07974 36.9295 7.12148 37.1168Z" fill="#F06156"/>
<path fill-rule="evenodd" clip-rule="evenodd" d="M4.33937 10.0273C4.47882 10.0365 4.57515 9.96443 4.70271 10.0565C4.63789 10.0788 4.59091 10.095 4.53962 10.1127C4.58749 10.2751 4.64071 10.4366 4.67981 10.6013C4.68977 10.6435 4.66762 10.7269 4.63833 10.7393C4.47569 10.808 4.42648 10.983 4.29982 11.0788C4.24377 11.1214 4.15978 11.1352 4.08648 11.1435C4.04976 11.1475 4.0065 11.0921 3.96978 11.0959C3.92503 11.1007 3.884 11.1398 3.83687 11.1666C3.7673 10.9207 3.77086 10.9107 3.49687 10.8173C3.33289 10.7614 3.29885 10.6003 3.18259 10.4989C3.15657 10.5543 3.13145 10.6079 3.10335 10.6679C3.06247 10.6251 2.99363 10.5862 2.99378 10.5475C2.99586 10.0645 2.99542 10.0536 2.77494 9.76418C2.65066 9.98257 2.88882 10.1089 2.90176 10.3226C2.84274 10.3134 2.75458 10.3202 2.74432 10.2951C2.6407 10.0432 2.48281 9.80536 2.64471 9.50327C2.69496 9.40946 2.70403 9.36025 2.81687 9.35832C2.88644 9.35728 2.96122 9.31639 3.02322 9.27715C3.18393 9.17561 3.33869 9.065 3.5104 8.948C3.54965 9.00657 3.58592 9.06084 3.57715 9.0476C3.71259 9.14201 3.85382 8.88779 3.87642 9.15286C3.88296 9.22809 4.0511 9.04865 4.0511 9.24563C4.0511 9.32175 4.191 9.39801 4.26132 9.46833C4.23619 9.53345 4.2124 9.59559 4.18847 9.65773C4.20839 9.67156 4.22831 9.68539 4.24838 9.69921C4.28362 9.63216 4.31885 9.56511 4.3633 9.48082C4.4357 9.60392 4.47777 9.67513 4.53293 9.76864C4.47302 9.84862 4.40627 9.93797 4.33937 10.0273Z" fill="#F06156"/>
<path fill-rule="evenodd" clip-rule="evenodd" d="M-0.304173 27.0237C-0.246193 27.1578 -0.203971 27.2555 -0.143613 27.3948C-0.105256 27.2932 -0.0875651 27.2467 -0.0688331 27.1973C-0.0506957 27.2085 -0.0209624 27.2162 -0.017097 27.2308C0.0194751 27.3698 0.0854832 27.4886 0.185833 27.5941C0.245895 27.6573 0.289306 27.7386 0.330189 27.817C0.402292 27.9557 0.504575 28.0504 0.67019 28.0798C0.696207 28.0272 0.722967 27.9728 0.735455 27.9475C0.812167 28.0049 0.895569 28.0675 0.957712 28.114C0.957712 28.1646 0.963064 28.1863 0.956969 28.1903C0.883527 28.238 0.80845 28.2831 0.739915 28.325C0.759836 28.4357 0.777677 28.5361 0.804585 28.6864C0.683124 28.6274 0.61667 28.595 0.520929 28.5483C0.467854 28.655 0.414632 28.7624 0.357395 28.8777C0.302983 28.8838 0.239205 28.8913 0.161155 28.9V29.0802C-0.042519 29.2327 -0.209175 29.2122 -0.385791 29.0512C-0.578166 28.8758 -0.795071 28.7276 -0.991311 28.5187C-0.908801 28.4641 -0.829116 28.4115 -0.7417 28.3538C-0.7863 28.1903 -0.866431 28.0443 -0.981945 27.9016C-1.09746 27.7587 -1.16079 27.5735 -1.2439 27.4126C-1.12511 27.2662 -1.0313 27.3746 -0.92233 27.4203C-0.917721 27.3795 -0.898841 27.3359 -0.911775 27.3065C-0.993095 27.1236 -0.957861 27.0332 -0.785556 27.0253C-0.623807 27.0178 -0.461462 27.0237 -0.304173 27.0237Z" fill="#F06156"/>
<path fill-rule="evenodd" clip-rule="evenodd" d="M1.15667 21.3388C1.25747 21.3684 1.36272 21.3991 1.49206 21.4371C1.54692 21.3064 1.56313 21.1809 1.44746 21.0642C1.58959 20.935 1.68414 21.1298 1.82344 21.1087C1.83638 21.0383 1.8502 20.9643 1.86358 20.8917C1.9727 20.7749 2.07112 20.9905 2.20299 20.8888C2.33783 20.7847 2.37187 21.0093 2.4865 21.0351C2.55087 21.0495 2.61108 21.1165 2.65702 21.173C2.80925 21.3597 2.83304 21.6239 3.03805 21.787C3.08711 21.826 3.06094 21.9599 3.07195 22.079C2.84463 21.9674 2.83081 22.328 2.61182 22.2425C2.54448 22.3515 2.60811 22.5491 2.36176 22.5727C2.33575 22.5284 2.29501 22.459 2.23703 22.36C2.18768 22.463 2.16374 22.513 2.13921 22.5644C2.00125 22.5971 1.93806 22.4782 1.89272 22.4025C1.74212 22.1505 1.54707 21.9577 1.29478 21.8069C1.13957 21.7142 1.05439 21.563 1.15667 21.3388Z" fill="#F06156"/>
</svg>
