<svg width="54" height="92" fill="none" xmlns="http://www.w3.org/2000/svg"><path fill-rule="evenodd" clip-rule="evenodd" d="M20.74 9.81c.61.305.61.305.937-.333.417-.143.92.145 1.297-.238.424.106.843.25 1.273.309.695.095 1.054.633 1.447 1.085.266.307.545.616.788.95.285.39.626.74.912 1.129.259.353.48.734.71 1.108.064.104.145.23.136.34-.024.29.076.485.283.693.396.4.365.988.503 1.487.128.466.055.997.013 1.495-.015.19-.04.596-.459.296-.03-.021-.175.135-.276.194-.106.062-.287.18-.325.147-.441-.387-.549-.11-.75.273-.298.564-.48.522-1.276.38-.486-.087-1-.102-1.284-.523-.768-1.139-1.555-2.27-1.662-3.725-.042-.583-.205-1.192-.686-1.611-.415-.361-.69-.878-1.256-1.08-.17-.06-.296-.264-.428-.414a1.663 1.663 0 0 1-.44-1.125c-.009-.467.36-.572.543-.837ZM2.183 1.016c.183-.25.326-.457.484-.653a.784.784 0 0 1 .23-.168c.236-.132.405.242.669.079.207-.127.45-.242.685-.265.196-.019.487.217.592.142.235-.17.376-.22.58.008.038.042.177.01.263-.01.64-.155.64-.156.983.466l.16-.464c.102.274.202.469.244.675.051.252.064.514.076.771.012.26.002.52.148.788l.097-.967.103-.004c.02.171.052.342.054.514.005.868-.036 1.74.014 2.605.043.764-.087 1.456-.519 2.087-.162-.155-.315-.39-.5-.015-.2.41-.523.378-.94.19-.07.445-.101.97-.838.802V6.483l-.147-.03-.353 1.151c-.33-.22-.6-.454-.546-.918.015-.13-.137-.272-.186-.417-.212-.632-.208-.633-.733-.648-.1-.003-.2 0-.3 0h-.276c-.254-.255-.483-.5-.728-.726C.977 4.412.811 3.774.727 3.11c-.041-.329.03-.672-.017-1-.051-.361.135-.628.299-.882.328-.507.506-.521 1.174-.212ZM60.78 8.969c-.428.29-.84.583-1.27.845-.042.026-.192-.126-.353-.239-.099.178-.166.34-.27.473-.124.156-.282.285-.421.43-.283.29-.556.616-.974.173-.032-.034-.13 0-.195-.008-.47-.05-.918.066-1.39-.312-.381-.304-.866-.514-1.223-.888-.336-.35-.683-.68-.917-1.125-.359-.684-.713-1.36-.585-2.161.032-.202.17-.386.295-.656l.623.511c.164-.542.13-1.173.633-1.651l.626.467v-.733c.66-.113 1.26-.34 1.921-.3.38.023.708.143.948.373.309.296.687.507.939.886.227.343.539.63.778.982.392.58.525 1.26.812 1.877.137.294.024.705.024 1.056ZM18.223 28.18v2.156c.2-.545.165-1.096.182-1.643.007-.22-.098-.495.17-.626.276-.137.567-.271.865-.315.102-.015.297.227.355.386.063.17.015.381.015.597.166-.07.265-.15.354-.14.183.02.436.19.53.121.522-.384 1.094-.132 1.634-.162.244-.013.613.15.73.348.288.488.868.637 1.172 1.212.01.245.042.548.297.875.334.428.62.959.516 1.585-.048.291-.008.596-.008.951-.685.407-1.398.802-2.081 1.242-.715.462-1.365.152-1.974-.167-.443-.233-1.04-.342-1.19-.962-.992-.447-1.168-1.492-1.698-2.283-.356-.531-.345-1.15-.446-1.712-.084-.464.244-1.003.39-1.508l.187.044ZM37.666 39.053l-1.376-1.377c0-.334-.035-.732.017-1.119.02-.143.228-.289.382-.373.059-.032.21.104.319.164.146-.289.231-.68.725-.585.092.018.222.024.284-.027.246-.199.514-.402.828-.314.563.157 1.191.248 1.63.637.868.77 1.694 1.605 2.126 2.715.257.662.49 1.346.614 2.042.054.304-.028.722-.374.965-.571.4-1.12.831-1.704 1.211-.198.13-.478.22-.71.199-1.46-.127-2.5-.814-2.932-2.463-.063-.24-.214-.49-.181-.715.047-.325.224-.632.352-.96ZM40.172 75.357l-.12-.605c-.002.8-.846 1.099-1.03 1.779-.066.243-.426.351-.575.216-.242-.22-.408-.06-.545.03-.364.237-.674.214-1.046-.003-1.072-.627-2.179-1.203-2.811-2.353-.762-.412-.985-1.25-1.458-1.886-.23-.31-.304-.736-.465-1.152.28-.408.687-.3 1.179-.054-.047-.232-.035-.445-.132-.577-.134-.18.01-.252.086-.284.346-.145.704-.251.99-.524.069-.068.266-.04.388-.004.219.066.406.206.649.008.069-.055.293.056.434.118 1.21.531 2.304 1.197 3.02 2.376.097.16.314.328.477.48.465.433.553 1.064.914 1.53.24.311.187.584.044.905ZM2.1 33.39c-.793-.172-1.072-.735-1.144-1.229-.092-.632-.307-1.251-.255-1.919.066-.865.061-1.742-.004-2.607-.031-.42.238-.73.232-1.123-.001-.102.14-.299.208-.295.517.03.763-.53 1.305-.534.36-.002.717-.338 1.12-.55.397.398 1.242-.093 1.564.783-.211.615.314 1.155.492 1.786.025.088.117.166.118.25.008.993.005 1.985.005 3.064l-.403-.358c.054.233.044.412.123.472.085.065.264-.007.384.034.055.018.084.162.09.25.003.042-.086.132-.119.125-.243-.047-.483-.114-.745-.18l-.514 1.114-.601-.045c.286.289-.043.393-.162.57-.121.18-.21.382-.306.562-.632-.069-.868-.477-1.037-1.016l-.351.845ZM36.548 3.008h.927c.358 0 .746-.06.829.458.008.058.143.146.207.137.424-.063.534.338.794.514.705.48.809 1.268.985 1.998.1.416-.034.714-.507.998-.532.318-1.197.515-1.562 1.093-.322.006-.585.51-.961.107-.055-.059-.176-.078-.265-.077-1.268.025-2.062-.703-2.725-1.674-.336-.493-.757-.932-.89-1.539a5.279 5.279 0 0 1-.103-.757c-.006-.083.043-.228.101-.249.51-.182.881-.617 1.376-.795a3.99 3.99 0 0 1 1.794-.214ZM34.94 51.75c.148.23.256.4.466.731.047-.35.065-.47.079-.59.044-.398.043-.397.546-.448.063-.007.16.002.183-.034.23-.362.588-.463.95-.354.41.123.85.278 1.17.547 1.244 1.05 1.977 2.456 2.545 3.948.097.255.014.577.014.865l-.384-.043c.026.36-.056.627-.477.712-.127.026-.3.215-.312.342-.042.434-.488.223-.644.448-.248-.395-.675.084-.955-.199-.267-.27-.634-.479-.81-.796-.39-.7-.763-1.428-.99-2.19-.117-.39-.29-.649-.59-.826-.488-.286-.867-.65-1.105-1.165-.198-.43-.207-.427.315-.948ZM53.772 40.062c0-.1-.024-.24.008-.364.022-.083.164-.14.177-.22.014-.087-.089-.187-.09-.282 0-.085.118-.188.095-.25a.756.756 0 0 0-.235-.3c-.065-.054-.173-.055-.306-.09l.163.568c-.354-.216-.749-.389-.575-.91l.47.202c.057-.628-.525-.301-.749-.598.328.038.546-.188.876-.144.153.02.352-.304.586-.526l1.117.911.108-.657 1.477-.285c.256.328.457.627.702.885.212.222.504.37.708.599.577.644.839 1.457 1.076 2.261.085.288.179.744-.371.82.002.53-.555.608-.806.943-.315.42-.872.491-1.474.248-.9-.363-1.492-1.066-2.067-1.75-.288-.344-.61-.667-.89-1.061ZM58.145 22.74c.345.024.584-.155.9.073l-.404.14c.119.402.25.802.348 1.21.024.105-.03.312-.103.342-.403.17-.525.604-.84.842-.138.105-.346.14-.528.16-.091.01-.198-.127-.29-.118-.11.012-.212.109-.329.175-.172-.61-.163-.634-.842-.865-.407-.139-.491-.538-.78-.79l-.196.42c-.1-.107-.272-.203-.271-.299.005-1.197.004-1.224-.543-1.941-.308.541.283.854.315 1.384-.147-.023-.365-.006-.39-.069-.257-.624-.648-1.213-.247-1.962.124-.232.147-.354.426-.36.173-.002.358-.103.512-.2.398-.252.782-.526 1.207-.816l.166.247c.335.234.685-.396.741.26.017.187.433-.258.433.23 0 .19.347.378.521.552l-.18.47.148.103.285-.541.42.713-.48.64ZM24.37 52.755l-.617-.78-.256.522c-.386-.181-.646-.48-.868-.793-.49-.69-.868-1.451-1.364-2.142-.305-.425-.323-.959-.202-1.512.458-.092.557.446.939.582v-.978l2.054-.29c.668.6 1.109 1.25 1.42 2 .18.426.547.747.658 1.235.044.193-.203.453.101.597.006.002-.09.237-.093.236-.497-.18-.665.542-1.143.426-.031-.008-.116.178-.164.279-.052.111-.076.239-.14.341-.049.077-.142.125-.325.277ZM46.627 64.908l.398.92.185-.49c.045.028.119.047.129.084.09.344.254.639.503.9.148.157.256.358.357.552.179.344.433.579.843.652.064-.13.13-.266.162-.328l.55.413c0 .125.014.179-.001.189-.182.118-.368.23-.538.333l.16.896-.703-.342-.405.816-.487.056v.446c-.504.378-.918.327-1.355-.072-.477-.434-1.014-.802-1.5-1.32l.618-.408a3.025 3.025 0 0 0-.596-1.121c-.286-.354-.443-.813-.649-1.212.294-.363.527-.094.797.02.011-.102.058-.21.026-.283-.201-.453-.114-.677.313-.697.4-.018.803-.004 1.193-.004ZM18.032 68.881l.478.707c.044-.14.106-.229.091-.303-.068-.363-.157-.722-.25-1.132h.584l.235.489v-.821c.114-.04.212-.053.28-.103.156-.116.402-.38.428-.359.255.21.57.083.818.178.37.142.72.389.715.86-.001.14-.188.297-.16.415.023.096.281.118.358.227.063.088.068.326.003.378-.26.208-.202.477-.185.729.023.315-.115.506-.394.585-.299.085-.369.276-.431.562-.089.403-.366.671-.834.651a1.928 1.928 0 0 0-.486.032c-.4.087-.903-.009-1.027-.302-.304-.714-.744-1.39-.662-2.231.032-.328.23-.421.44-.562ZM50.253 50.804l.832.244c.136-.324.176-.635-.11-.925.351-.32.586.163.93.11l.1-.537c.27-.29.515.245.842-.007.334-.258.418.299.702.362.16.036.309.202.423.342.377.463.436 1.118.944 1.522.122.096.057.428.084.724-.563-.277-.597.617-1.14.405-.167.27-.01.76-.62.818l-.31-.527c-.121.255-.18.38-.242.507-.341.08-.498-.214-.61-.402a4.167 4.167 0 0 0-1.482-1.476c-.385-.23-.596-.604-.343-1.16ZM45.365 24.11l-1.276 1.001h-.845c-.33-.476-.436-1.102-.921-1.494-.051-.663-.51-1.073-.907-1.535-.127-.147-.1-.427-.153-.7.145-.04.289-.038.364-.108.772-.722 1.5-.317 2.114.176.526.42.969.976 1.341 1.541.211.321.206.784.283 1.12Z" fill="#F06156"></path></svg>