<svg width="28" height="38" fill="none" xmlns="http://www.w3.org/2000/svg"><path fill-rule="evenodd" clip-rule="evenodd" d="M8.515 4.844c.245.123.245.123.377-.135.168-.057.371.059.523-.096.171.043.34.1.513.125.28.038.425.255.583.437.108.124.22.248.318.383.115.157.252.298.368.455.104.143.193.296.286.447.026.042.059.093.055.137-.01.117.03.196.114.28.16.16.147.398.203.599.051.188.022.402.005.602-.006.077-.016.24-.185.12-.012-.009-.07.054-.111.078-.043.025-.116.072-.131.06-.178-.157-.222-.045-.303.11-.12.227-.193.21-.514.152-.196-.035-.403-.04-.518-.21-.31-.46-.627-.915-.67-1.502-.017-.235-.082-.48-.276-.65-.167-.145-.278-.353-.506-.435-.07-.024-.12-.106-.173-.166a.67.67 0 0 1-.178-.454c-.003-.188.146-.23.22-.337ZM1.034 1.299c.074-.1.132-.184.195-.263a.316.316 0 0 1 .093-.068c.095-.053.163.098.27.032a.68.68 0 0 1 .276-.107c.08-.007.196.088.239.057.095-.068.151-.089.233.004.016.017.072.004.107-.005.258-.062.258-.063.396.188L2.908.95c.04.11.08.19.097.273.021.101.026.206.031.31.005.105.001.21.06.318l.039-.39.042-.001c.007.068.02.137.021.206.002.35-.014.702.006 1.05.017.309-.035.587-.21.842-.064-.062-.126-.157-.2-.006-.082.165-.212.152-.38.077-.028.179-.04.39-.337.323v-.45a8.21 8.21 0 0 1-.06-.011l-.142.464c-.133-.089-.242-.184-.22-.37.006-.053-.055-.11-.075-.169-.085-.254-.084-.255-.295-.26-.04-.002-.081-.001-.122-.001h-.11C.95 3.052.857 2.954.758 2.863c-.21-.195-.278-.452-.311-.72C.43 2.011.46 1.872.44 1.74c-.021-.146.054-.253.12-.356.132-.204.204-.21.473-.085ZM24.655 4.505c-.173.117-.34.235-.513.34-.016.01-.076-.05-.142-.096-.04.072-.066.137-.109.19-.05.064-.113.116-.17.174-.113.117-.223.248-.392.07-.013-.014-.052 0-.079-.003-.189-.02-.37.027-.56-.126-.153-.123-.349-.207-.493-.358-.135-.141-.275-.274-.37-.454-.144-.275-.287-.547-.235-.87.013-.082.068-.156.119-.265l.251.206c.066-.219.053-.473.255-.666l.252.189V2.54c.266-.045.508-.137.775-.12.153.009.285.057.382.15.124.119.277.204.378.357.092.138.218.254.314.396.158.234.212.507.327.756.056.119.01.285.01.426ZM7.5 12.248v.87c.08-.22.066-.442.073-.663.003-.088-.04-.199.069-.252.11-.055.228-.11.348-.127.042-.006.12.092.144.156.025.068.005.154.005.24.068-.028.107-.06.143-.056.074.008.176.076.214.049.21-.155.44-.053.658-.066.099-.005.248.06.295.14.116.197.35.258.472.49a.564.564 0 0 0 .12.352c.135.172.25.386.208.639-.02.117-.003.24-.003.383-.277.164-.564.323-.84.501-.287.186-.55.061-.795-.067-.179-.094-.419-.138-.48-.388-.4-.18-.47-.602-.684-.92-.144-.215-.14-.464-.18-.69-.033-.188.099-.405.158-.609l.075.018ZM15.337 16.631l-.555-.555c0-.134-.014-.295.008-.45.008-.059.091-.117.153-.151.024-.013.085.042.129.066.059-.117.093-.274.292-.236.037.008.09.01.115-.01.099-.08.207-.163.333-.127.228.063.48.1.658.257.35.31.682.646.856 1.094.104.267.198.543.248.823a.392.392 0 0 1-.15.389c-.231.16-.452.335-.688.488a.49.49 0 0 1-.286.08c-.588-.05-1.008-.328-1.182-.992-.025-.097-.086-.198-.073-.289.02-.13.09-.255.142-.387ZM16.347 31.265l-.048-.243c-.001.322-.341.443-.415.717-.027.098-.172.141-.232.087-.098-.089-.164-.024-.22.012-.146.095-.271.086-.421-.001-.433-.253-.879-.485-1.133-.949-.308-.166-.398-.504-.588-.76-.093-.125-.123-.297-.188-.464.113-.165.277-.121.476-.022-.02-.094-.014-.18-.053-.233-.055-.073.003-.101.034-.114.14-.059.284-.102.399-.212.028-.027.107-.016.157-.001.088.026.163.083.261.003.028-.022.118.023.175.048.488.214.929.482 1.217.958.04.064.127.132.193.193.187.174.223.429.368.617.097.125.075.235.018.364ZM1 14.349a.558.558 0 0 1-.46-.495c-.038-.255-.124-.505-.103-.774a6.971 6.971 0 0 0-.002-1.05c-.012-.17.096-.295.094-.454 0-.04.056-.12.083-.119.209.012.308-.214.527-.215.144 0 .289-.136.451-.221.16.16.5-.038.63.315-.084.248.127.466.199.72.01.036.047.067.047.1.004.4.003.801.003 1.236l-.163-.144c.022.094.018.166.05.19.034.026.106-.003.154.013.022.008.034.066.037.102 0 .016-.035.052-.048.05-.098-.02-.195-.046-.3-.072l-.208.448-.242-.018c.115.116-.017.158-.065.23-.05.072-.085.154-.124.226-.255-.027-.35-.192-.418-.41l-.141.342ZM25.667 28.532c-.225-.128-.453-.24-.637-.425-.341-.345-.708-.668-1.023-1.036-.332-.387-.683-.768-.883-1.221.021-.18.254.011.259-.2.001-.06.149-.119.23-.176.204-.142.318-.166.466-.008.146.156.316.212.507.252.296.063.5.29.753.43.27.15.464.39.684.599.114.108.255.191.353.31.098.121.189.266.224.414.02.09-.047.226-.116.307-.085.099-.125.242-.274.29-.086.027-.074.123-.09.203-.02.09-.046.202-.204.087-.11-.08-.203.034-.25.174ZM28.857 16.75l-.248.04.1.186-.6.6c-.033 0-.073-.007-.112 0-.454.084-.756-.173-1.009-.484a3.68 3.68 0 0 1-.498-.802c-.082-.183-.156-.35-.097-.598l.383.843.066-.022c-.01-.051-.011-.106-.031-.154-.082-.195-.176-.385-.253-.582-.035-.087-.108-.196.08-.236.057-.013.09-.138.135-.211l.107-.183c.189-.017.19.148.309.217l-.091-.346.222-.177c.051.051.119.132.182-.017.068-.161.169-.224.332-.118.015.01.045.017.055.009.19-.156.3 0 .388.118.209.285.307.627.432.952.03.076.094.256-.122.264-.012 0-.021.068-.032.104.045.01.114.045.131.028.12-.12.186.037.174.065-.072.17.096.335-.003.504ZM27.39 8.106l.167.167.036-.312c.167-.035.339-.079.513-.104.106-.016.217-.016.322 0 .08.013.018.163.167.176.097.008.171.172.24.287.056.093-.028.293.184.281l.022.395c0 .013.004.025.006.038l.602.602c.064 0 .132-.008.198.002.1.016.208.116.157.178-.115.137.09.232.01.344-.314.094-.413.104-.668.06l.19.41c-.041.038-.095.133-.148.133-.333-.002-.685.082-.982-.155-.08-.064-.178-.114-.24-.193-.144-.179-.272-.37-.402-.56-.065-.092-.12-.192-.181-.287-.096-.147-.068-.36-.243-.465.026-.178-.074-.313-.139-.467-.087-.21-.033-.41.189-.53ZM14.886 2.102h.374c.145 0 .301-.024.334.185.004.023.058.058.084.055.17-.026.215.136.32.207.284.193.326.511.397.805.04.168-.014.288-.205.403-.214.128-.482.207-.629.44-.13.003-.236.206-.387.043-.022-.023-.071-.031-.107-.03-.511.01-.831-.284-1.099-.675-.135-.199-.305-.376-.358-.62a2.135 2.135 0 0 1-.042-.306c-.002-.034.017-.092.04-.1.207-.074.356-.25.556-.32.245-.088.508-.115.723-.087ZM14.239 21.75l.188.294c.018-.14.026-.189.031-.237.018-.16.018-.16.22-.181.026-.003.065 0 .074-.014a.32.32 0 0 1 .383-.143c.165.05.343.112.472.221.501.423.797.99 1.026 1.591.039.103.005.233.005.349l-.154-.017c.01.145-.023.253-.193.287-.05.01-.12.086-.125.138-.018.175-.197.09-.26.18-.1-.159-.272.034-.385-.08-.108-.109-.255-.193-.327-.321a4.507 4.507 0 0 1-.399-.883c-.047-.157-.117-.261-.238-.333a1.048 1.048 0 0 1-.445-.47c-.08-.173-.083-.171.127-.381ZM21.83 17.04c0-.04-.01-.097.004-.147.008-.034.066-.056.071-.089.005-.035-.036-.075-.036-.114 0-.034.047-.076.038-.1a.305.305 0 0 0-.095-.122c-.026-.021-.07-.022-.123-.036l.066.23c-.143-.088-.303-.157-.232-.368l.189.081c.023-.253-.212-.121-.302-.24.132.015.22-.076.353-.059.062.008.142-.123.237-.212l.45.368.044-.265.596-.115c.104.132.184.253.283.357.086.09.204.15.286.241.233.26.338.588.434.913.035.116.072.3-.15.33.001.214-.223.246-.325.38-.127.17-.352.2-.594.101-.364-.146-.602-.43-.835-.706-.116-.139-.246-.27-.359-.428ZM26.377 37.147l-.216-.119c-.091.329-.114.346-.383.228l.19.44-.215.126c-.13-.132-.264-.265-.41-.41-.087.197.154.288.13.479-.216.03-.342-.117-.466-.253-.068-.074-.105-.177-.175-.248a8.948 8.948 0 0 1-.855-1.02c-.024-.032-.056-.058-.085-.086-.158-.15-.323-.296-.335-.541.157-.096.24.052.348.144.109-.18-.143-.204-.132-.337.01-.16.315.044.237-.217h.439c.125.088.253.175.377.266.125.091.208.222.361.296.15.072.248.242.379.358.085.075.14.179.276.213.099.024.152.174.302.154.041-.005.117.07.138.124.04.102.053.215.095.403ZM23.594 10.057c.14.01.236-.063.363.03l-.163.055c.048.163.101.324.14.49.01.041-.012.125-.041.137-.163.069-.212.244-.338.34a.446.446 0 0 1-.214.064c-.037.004-.08-.051-.117-.047-.044.005-.085.044-.133.07-.07-.246-.066-.255-.34-.349-.164-.056-.198-.217-.314-.318l-.079.169c-.04-.043-.11-.082-.11-.12.002-.484.002-.495-.218-.784-.125.218.113.345.126.558-.059-.009-.147-.002-.157-.027-.104-.252-.261-.49-.1-.792.05-.094.06-.143.172-.145a.435.435 0 0 0 .207-.081c.16-.102.315-.212.487-.33l.067.1c.135.095.276-.16.3.106.006.075.174-.105.174.092 0 .077.14.153.21.223l-.073.19.06.041.115-.218.17.287-.194.26ZM9.98 22.157c-.094-.118-.168-.21-.25-.315l-.103.21a.91.91 0 0 1-.35-.319c-.198-.278-.35-.585-.55-.864-.124-.172-.13-.387-.082-.61.184-.038.224.18.378.234V20.1l.83-.117c.27.242.447.504.573.806.072.173.22.302.265.5.018.077-.082.182.04.24.003 0-.036.096-.037.095-.2-.072-.268.219-.461.172-.013-.003-.047.072-.066.113-.021.044-.03.096-.057.137-.02.031-.057.05-.13.112ZM18.95 27.054l.161.371.075-.197c.018.01.048.018.052.033a.815.815 0 0 0 .203.363c.06.064.103.145.144.223a.455.455 0 0 0 .34.263l.065-.132.222.166c0 .05.006.073 0 .077-.074.047-.149.092-.217.134l.064.362-.283-.138-.164.329-.196.022v.18c-.204.153-.37.133-.547-.029-.192-.175-.41-.323-.606-.532l.25-.165a1.22 1.22 0 0 0-.24-.452c-.116-.143-.18-.328-.262-.49.119-.145.212-.037.321.009.005-.041.024-.085.01-.114-.08-.183-.045-.273.127-.281.162-.008.324-.002.482-.002ZM7.423 28.656l.193.285c.018-.056.043-.092.037-.122-.028-.147-.063-.292-.1-.457h.235l.094.197v-.331c.046-.016.086-.021.113-.042.063-.046.163-.153.173-.144.103.084.23.033.33.072.15.057.29.156.289.346 0 .057-.076.12-.065.168.01.039.114.047.145.091.025.036.027.132 0 .153-.104.084-.081.193-.074.294.01.127-.046.204-.16.236-.12.034-.148.112-.173.227-.036.163-.147.27-.336.263a.78.78 0 0 0-.196.012c-.162.036-.365-.003-.415-.121-.123-.289-.3-.561-.267-.9.013-.133.093-.17.177-.227ZM20.411 21.369l.336.098c.055-.13.07-.256-.045-.373.142-.129.237.066.376.045l.04-.217c.11-.117.208.098.34-.003.135-.104.169.12.283.146.064.014.125.082.17.138.153.187.177.451.382.614.049.039.023.173.034.292-.228-.112-.242.249-.46.164-.068.108-.004.306-.25.33l-.125-.213-.098.204c-.138.033-.201-.086-.247-.162a1.68 1.68 0 0 0-.598-.595c-.155-.093-.24-.244-.138-.468ZM18.441 10.608l-.515.403h-.34c-.133-.192-.176-.444-.371-.602-.02-.267-.206-.433-.366-.619-.05-.06-.04-.172-.062-.282.059-.016.117-.015.147-.044.311-.29.605-.127.852.071.212.17.39.394.54.622.086.129.084.316.115.45Z" fill="#F06156"></path></svg>